<svg xmlns="http://www.w3.org/2000/svg" viewBox="0 0 13.32 12.99"><defs><style>.cls-1{fill:#6a3b93;}</style></defs><g id="レイヤー_2" data-name="レイヤー 2"><g id="レイヤー_1-2" data-name="レイヤー 1"><path class="cls-1" d="M1.24,7.06a5.91,5.91,0,0,1-.69.71L0,4.83A9.58,9.58,0,0,0,2,0L4,.12a15.14,15.14,0,0,1-.79,3.34V13H1.24ZM6.45,3.54l1.27-.3V0h2V2.77L12.91,2a55,55,0,0,1-.19,5.91c-.1.63-.32,1.24-1.1,1.33l1.7.66c-.22,2.8-.88,2.93-1.84,2.93H6.21c-1.28,0-1.69-.46-1.69-1.57V6.11l-.87.21-.2-2.06L4.52,4V.85H6.45Zm0,6.64c0,.49,0,.7.75.7h3.42c.52,0,.7-.15.76-1.62H10.3L9.93,7.33h.45c.4,0,.47-.07.51-.67S11,5.22,11,4.55l-1.28.31V10h-2V5.33l-1.27.31Z"/></g></g></svg>