<svg xmlns="http://www.w3.org/2000/svg" viewBox="0 0 13.21 13.14"><defs><style>.cls-1{fill:#6a3b93;}</style></defs><g id="レイヤー_2" data-name="レイヤー 2"><g id="レイヤー_1-2" data-name="レイヤー 1"><path class="cls-1" d="M4.33,11.33a14,14,0,0,0,3.74-1c-.16-.18-.81-.85-1-1a11.66,11.66,0,0,1-1.38.62L4.88,8.86l-.22.55A11.45,11.45,0,0,1,4,8.31v4.76H2.14V8.39A13.07,13.07,0,0,1,.63,11.1L0,8.38a9.68,9.68,0,0,0,1.91-3H.25V3.49H2.14V2.36C2,2.38.65,2.42.55,2.43L.25.52A19.82,19.82,0,0,0,4.9.08L5.41,1.9A7.33,7.33,0,0,1,4,2.18V3.49H5.31V5.08a10.45,10.45,0,0,0,2.28-.67,12.79,12.79,0,0,0-.94-.92c-.31.18-.37.23-.69.4L4.7,2.28A6.78,6.78,0,0,0,7.76,0L9.89.16,9.5.78h3.19v1.6A8.41,8.41,0,0,1,9.6,5.45l1.48.35c-.19.27-.33.46-.53.71h2.66V8.32c-1.61,2.82-4.76,4.15-8,4.82ZM5,5.4H4v.16A7.83,7.83,0,0,0,5.51,7.22L5.09,8.28A12.68,12.68,0,0,0,8.76,5.93,12.51,12.51,0,0,1,5.8,7Zm3.1-3s0,.05-.08.08a13.65,13.65,0,0,1,1.32,1,5.78,5.78,0,0,0,1.17-1.12Zm.66,5.85-.22.17c.14.11.7.57,1.21,1.06A6.94,6.94,0,0,0,11,8.23Z"/></g></g></svg>