<svg xmlns="http://www.w3.org/2000/svg" viewBox="0 0 11.59 12.04"><defs><style>.cls-1{fill:#6a3b93;}</style></defs><g id="レイヤー_2" data-name="レイヤー 2"><g id="レイヤー_1-2" data-name="レイヤー 1"><path class="cls-1" d="M11.59,2.35v2.1a25.83,25.83,0,0,1-.55,6A2.43,2.43,0,0,1,8.39,12,10.06,10.06,0,0,1,6,11.74L5.89,9.59A12.88,12.88,0,0,0,8,9.81c.86,0,1-.24,1.14-.84a32.82,32.82,0,0,0,.27-3.86v-.7h-3A10.28,10.28,0,0,1,1.51,12L0,10.38C2.42,9,3.54,7.51,4.12,4.41H.65V2.35H4.37c.08-1.07.08-1.8.08-2.35H6.77c0,.65-.07,1.36-.14,2.34Z"/></g></g></svg>