<?xml version="1.0" encoding="utf-8"?>
<!-- Generator: Adobe Illustrator 25.4.1, SVG Export Plug-In . SVG Version: 6.00 Build 0)  -->
<svg version="1.1" id="レイヤー_1" xmlns="http://www.w3.org/2000/svg" xmlns:xlink="http://www.w3.org/1999/xlink" x="0px"
	 y="0px" viewBox="0 0 103.3 96.4" style="enable-background:new 0 0 103.3 96.4;" xml:space="preserve">
<style type="text/css">
	.st0{fill:#4AA8DF;}
</style>
<g>
	<g>
		<g>
			<path class="st0" d="M35.5,53.2C35.5,53.2,35.6,53.2,35.5,53.2L35.5,53.2L35.5,53.2z"/>
			<path class="st0" d="M44.9,49.1h-0.4C44.6,49.1,44.7,49.2,44.9,49.1L44.9,49.1z"/>
			<path class="st0" d="M45.5,25.3h-0.2v0.1h-0.1v0.1c0,0,0,0,0.1-0.1C45.4,25.4,45.5,25.3,45.5,25.3"/>
			<path class="st0" d="M31.5,55.9L31.5,55.9c0.1-0.1,0.2-0.2,0.2-0.2v-0.1h0.1v-0.1h-0.2C31.5,55.7,31.5,55.8,31.5,55.9L31.5,55.9z
				"/>
			<path class="st0" d="M43.7,25.8L43.7,25.8L43.7,25.8l0.1-0.1v-0.1h-0.2c0,0,0,0.1-0.1,0.1c0,0,0,0,0.1,0.1
				C43.7,25.8,43.7,25.8,43.7,25.8"/>
			<g>
				<path class="st0" d="M43.3,73L43.3,73c-0.2,0.1-0.4,0.1-0.6,0.2v0.1c-0.3,0,0-1.5,0.3-1.8c0-0.7,0.9-1.1,1-1.8
					c0.4-0.3,0.7-0.7,1.1-1c0.5,0.9,1,1.9,1.5,2.8C45.4,72,44.4,72.5,43.3,73 M51.3,74.6c0.7,0-0.5-1.9-0.7-2
					c-1.3-1.7-3.5-1.8-4.5-3.7c-0.7-1.3,0.8-2.1,1.1-3.2c0.5-2.2-1.5-4.1-3.6-4.1v-0.1h0.1c0.3-0.3,0.5-0.7,0.8-1
					c2.6-3.1,5.5-4,3.8-8.8c-0.5-1.4-1.5-2.4-3-2.7c0,0,0,0-0.1,0.1c0.3,0.1,0.5,0.2,0.8,0.3v0.1c-0.3,0-0.5,0.1-0.8,0.1
					c-1.5,0-2.7,0.9-3.9,1.5c-1.6,0.8-3.3,1.3-4.8,2.3c-1.7,1.1-3.7,2.8-5.6,3.4c0.1-0.1,0.3-0.3,0.4-0.4c0-0.1,0-0.2-0.1-0.2v-0.1
					h-0.1v0.1c-0.2,0-4.9,3.3-4.9,3.5c0.1,0.4,0.3,0.9,0.4,1.3c0.4,1.6,0.5,3.7,2,4.7c1.7,1.1,4.8-2.1,6.3-2.8H35
					c-0.2,0.3-0.5,0.7-0.7,1c-2,2-2.9,3.1-2.2,6.2c0.4,1.6,1.3,1.9,3,1.9v0.1H35c-1.3,1.3-2.6,2.7-3.9,4c-0.1,0-0.2-0.1-0.2-0.1v0.1
					c-0.2,0.2-0.3,0.4-0.5,0.6c-2,1.7-2.6,5-0.6,7c1.5,1.4,5.6-0.4,7-1h0.1c0.2,1,0.3,1.9,0.5,2.9h-0.1c0-0.1-0.1-0.2-0.1-0.2V85
					h-0.1c0,0,0,0-0.1,0.1c0,2.1,0.5,5.2-1.9,5.7v0.1c0.3,0.1,0.5,0.2,0.8,0.2c0,0,0,0,0.1,0.1c-0.1,0-0.1,0.1-0.2,0.1v0.1h-0.1v0.1
					c0.2,0.1,0.4,0.1,0.6,0.2h0.1v0.1C36.2,91.9,36,92,35.9,92c-0.3,0.1-0.6,0.1-0.9,0.2l0,0c0,0.1,0.1,0.1,0.1,0.2
					c0.6,0.6,1.2,1.1,1.8,1.6c0.4,0.4,0.4,1,0.9,1.3c0.6,0.4,1.2,0.1,1.7,0.7c0-0.2,0.5,0.1,0.6,0.2c0.1-0.2,0.2-0.3,0.3-0.5v-0.1
					c0.4,0,0.7,0.1,0.9,0.3V96h0.1c0-0.1,0.1-0.2,0.1-0.4c0.2,0.3,0.4,0.5,0.5,0.8v0.1h0.1c0.1-0.3,0.2-0.5,0.3-0.8
					c0,0,0.1,0,0.1,0.1c0.2,0.1,0.4,0.3,0.6,0.4c-0.1-3.8-0.2-7.6-0.2-11.5c0-1.3-0.4-2.9-0.2-4.2c0.2-0.8,1-0.9,1.2-1.7
					c0.5-0.2,0.9-0.4,1.3-0.6c0.1,0.2,0.2,0.4,0.3,0.5h-0.2c0.1,0,0.2,0,0.3,0.1V79v0.1c0.5-0.1,1.1-0.2,1.6-0.2
					c0-0.1,0-0.2-0.1-0.3h0.1c0.2,0,0.3-0.1,0.5-0.1c1.3-0.3,2.5-0.9,3.7-1.4V77c0,0,0,0,0.1-0.1c-0.2-0.2-0.5-0.3-0.7-0.5v-0.1
					c0,0,0,0-0.1-0.1c0.4,0,0.7-1,0.8-1.3v-0.1c-0.1,0-0.2-0.1-0.4-0.1v-0.1C51.1,74.6,51.3,74.6,51.3,74.6z"/>
				<path class="st0" d="M49.6,38.6c-0.6-0.8-1.9-1-2.8-1.2c-0.8,0.4-1.7,0.6-2.4,1.2c-2,1.7-5.5,7.3-1.6,8.8
					C46.7,48.9,51.9,41.6,49.6,38.6"/>
				<path class="st0" d="M35.2,52.5c0.3-1.1-0.4-2.1-0.9-2.9c-0.4-0.6-1-2.1-1.6-2.4c-1.1-0.1-2.1-0.3-3.2-0.4
					c-0.2,0-0.5,0.1-0.7,0.1s-0.4,0-0.5,0.1c-0.1,0-0.2,0-0.4,0.1c-0.1,0-0.3,0-0.4,0.1c-0.1,0-0.3,0-0.4,0.1c-0.1,0-0.3,0-0.4,0.1
					c-0.2,0-0.4,0.1-0.6,0.1c-0.1,0-0.2,0-0.4,0.1c-0.1,0-0.2,0-0.4,0.1c-0.1,0-0.2,0-0.4,0.1c-2.7,0-6.1,4.1-3.4,6.5
					c1.1,0.9,3.4,1,4.8,1.2C28.7,55.5,34.6,54.6,35.2,52.5"/>
				<path class="st0" d="M35.4,28.4L35.4,28.4l-0.1,0.1c-0.2,0-0.1-1.8-0.1-2.3C35.3,26.9,35.4,27.6,35.4,28.4L35.4,28.4 M34.6,29.1
					L34.6,29.1c-0.4,0.1-0.4-1.7-0.3-2c0.3,0.5,0.4,1.3,0.4,2H34.6z M56.7,23.6c-0.2,0-0.3,0-0.5,0.1c-0.2,0-0.5,0.1-0.7,0.1
					c-0.1,0-0.2,0-0.4,0.1c-0.1,0-0.3,0-0.4,0.1c-0.1,0-0.3,0-0.4,0.1c-0.1,0-0.3,0-0.4,0.1c-0.2,0-0.4,0-0.5,0.1
					c-0.2,0-0.4,0-0.5,0.1c-0.2,0-0.3,0-0.5,0.1c-0.1,0-0.3,0-0.4,0.1c-1.3,0.3-2.5,0.5-3.8,0.8c-0.6,0-1.1,0.4-1.6,0.6v-0.1
					c0-0.1,0.1-0.2,0.1-0.2c-0.1,0-0.2,0.1-0.4,0.1c-0.9,0-2,0.4-2.8,0.7c-0.5,0-1,0-1.3,0.3v0.1h-0.1c0-0.1,0-0.2-0.1-0.2l0,0v0.1
					c-0.7,0.3-1.4,0.6-2.1,0.9v0.1c-0.1,0-0.2-0.1-0.2-0.1h-0.1c-0.2,0.1-0.4,0.2-0.6,0.4c-0.8,0-0.6-1.1-0.5-1.6
					c0.2-1.1,0.4-2.5,1-3.4c1.1-1.8,3.3-3.1,3-5.5c-0.2-1.8-1.6-3.2-2.1-4.9c-0.3,0.1-0.5,0.3-0.8,0.4h-0.1c0-2.3-0.5-4.8,0.2-6.9
					C40.2,4.8,41.8,5,42.2,4c0.5-1.2-0.9-2.8-1.9-3.1c-1.1-0.1-2.1-0.3-3.2-0.4c-4.7,2.2-5.2,6.4-5.2,11.7c0,1.3,0.4,3-0.1,4.2
					c-0.7,1.7-4,1.9-4.5,4.2c0,0.3,0.1,0.7,0.1,1c0.2,0.8,0.5,1.6,1.2,2.1c1,0.8,4.3,0.8,4.5,1.6c0.2,0.7,1.2,3.6,0.9,4.2
					c-0.2,0.4-0.8,0.6-1.2,0.7v0.1h-0.1c0-0.1,0-0.2-0.1-0.2h-0.1v0.1c0,0-0.1,0-0.1,0.1v0.2c0,0,0,0,0.1,0.1
					c-1.2,0-2.7,1.2-3.7,1.6c-1.3,0.6-2.7,1-3.9,1.7c0,0,0,0-0.1,0.1c0-0.1-1.4,0.6-1.5,0.7c-3.9,2.4-8.4,4-11.9,7v0.1
					c-1.2,0-10.5,8.4-11.3,10c-0.3,0.5-0.3,1.4-0.1,2c0.8,2.2,3.1,0.9,4.6,0.3c6.4-2.5,12.1-6.3,17.9-9.7c9-5.2,18.4-9.4,28.8-11.9
					c2.9-0.7,8.3-2.2,11.4-1.7C62.8,26.9,60.8,22.7,56.7,23.6"/>
			</g>
		</g>
	</g>
	<g>
		<g>
			<path class="st0" d="M76.3,51.6c-0.1-0.2-0.1-0.3-0.2-0.5C76.1,51.3,76.2,51.5,76.3,51.6"/>
			<g>
				<path class="st0" d="M97.7,49.6C97.7,49.6,97.6,49.6,97.7,49.6c0.1-0.5,0.2-0.9,0.4-1.3l0,0C97.9,48.7,97.8,49.2,97.7,49.6
					 M97.5,50L97.5,50L97.5,50C97.6,49.9,97.5,50,97.5,50 M97.5,52.1c0-0.1-0.1-0.1-0.1-0.2C97.4,52,97.5,52.1,97.5,52.1L97.5,52.1z
					 M101.1,46.3c-0.6-0.1-1.1-0.2-1.7-0.2c-0.3,0.3-0.6,0.5-0.9,0.8c-1.2,1.4-2.2,3.7-1.3,5.5l0,0c0.1,0,0.3-0.1,0.4-0.1
					c0.1,0.3,0.3,0.7,0.4,1c0.1,0.1,0.5,0.7,0.7,0.5s0.2-0.8,0.2-1.2c0.1-1.3,0.3-3.8,1.4-4.5c0.4-0.2,0.7,0.2,1.1,0.2
					c0.2,0,0.3,0,0.5,0C101.9,47.4,101.5,47,101.1,46.3L101.1,46.3"/>
				<path class="st0" d="M103.3,42.4c-0.1,0,0-0.8,0-1h-0.1l-0.1,0.1H103v-0.1c0.1-0.1,0.2-0.3,0.2-0.4h-0.1c0,0.1-0.4-0.1-0.3-0.3
					c-0.2,0-0.3-0.1-0.5-0.1v-0.1l0.1-0.1v-0.1h-0.2l0,0c-0.1,0-0.1,0-0.2,0c-0.2,0-0.4,0.1-0.7,0.1c0,0-0.2,0.7-0.2,0.8
					c0.1,0,0.1-0.1,0.2-0.1l0,0l0,0c0.2,0.3,0.4,0.6,0.6,0.9c0.2,0.6,0.1,1.5,0.6,2l0.1-0.1l0,0C103.6,44.2,103.3,43.1,103.3,42.4"
					/>
				<path class="st0" d="M92.9,42.1c0,0.1-0.1,0.1-0.1,0.2c0,1-0.3,2.1-0.3,3.1c0,3.2,0.4,6.3,0.8,9.2c0,0.2,0.1,0.5,0.3,0.5
					l0.1-0.1c0.2-0.5,0.5-1,0.6-1.5c0-0.6,0-1.3,0-1.9C94.6,49.4,94.9,43,92.9,42.1"/>
				<path class="st0" d="M91.2,47.2L91.2,47.2L91.2,47.2L91.2,47.2L91.2,47.2L91.2,47.2c-0.1,0,0-0.1,0-0.2l0,0
					C91.2,47.1,91.2,47.1,91.2,47.2L91.2,47.2 M89.5,48.2L89.5,48.2L89.5,48.2L89.5,48.2C89.5,48.2,89.5,48.1,89.5,48.2
					c0.3-0.4,0.9-0.8,1.4-0.9v-0.1l0.1,0.1C90.8,47.3,89.7,48.1,89.5,48.2 M90.5,46.8L90.5,46.8C90.5,46.8,90.6,46.8,90.5,46.8
					c0,0.1,0,0.2-0.1,0.2h-0.1C90.4,46.9,90.4,46.8,90.5,46.8 M89.2,48.3c-0.1,0.1-0.2,0.2-0.3,0.2l0,0l0,0l0,0
					C88.9,48.4,89,48.3,89.2,48.3C89.2,48.2,89.2,48.3,89.2,48.3L89.2,48.3L89.2,48.3 M88.9,48L88.9,48C89,48.1,88.9,48.1,88.9,48
					L88.9,48z M92.4,47.1c-0.1,0.1-0.3,0.2-0.4,0.3h-0.1H92c0-0.1,0-0.2,0-0.3c-0.1,0-0.2,0-0.2,0c0-0.1,0.1-0.2,0.1-0.3h-0.1
					c-0.1,0.1-0.2,0.1-0.3,0.2v-0.1c0.1-0.4-0.4-0.2-0.6-0.1l0,0l0,0c0-0.1,0-0.1,0-0.2v-0.1c-0.3,0.1-0.6,0.2-0.8,0.3
					c0.1,0,0.1,0,0.2,0.1V47c-0.2,0.2-0.4,0.4-0.6,0.6v0.1c0.1,0,0.1,0,0.2,0l0,0c0,0.1-0.1,0.1-0.1,0.2l0,0l0,0l0,0l0,0l0,0
					c0-0.1,0-0.1,0-0.2l0,0l0,0c0-0.1-0.9,0.3-1,0.5l0,0l0,0c-0.8,0-1.6-1-2.2-1.4c-0.7-0.4-1.5-0.7-2.3-0.9
					c-0.2,0.9,1.1,2.2,1.6,2.9v0.1c-0.5,0.2-1,0.4-1.5,0.5c-0.2,0-0.3,0.1-0.5,0.1l0,0c0.1,0.3,0.2,0.6,0.4,0.9
					c0.1,0.6,0.2,1.1,0.7,1.4c0.6,0.5,2.8-0.2,3.3-0.6c0.5,0.4,0.9,0.8,1.4,1.2c0.5,0,0.8,0.2,1.2,0.3l0,0c0-0.1,0-0.1,0-0.2
					c-0.1-0.4-0.5-0.9-0.7-1.2v-0.1l0,0c0,0,0.2,0,0.3-0.1c0-0.2-0.3-0.4-0.3-0.8l0.1-0.1C90.8,49.8,92.6,48.4,92.4,47.1L92.4,47.1z
					"/>
				<path class="st0" d="M77.1,52.3c0.1-0.1,0.2-0.1,0.2-0.2l0,0V52l-0.1-0.1c-1,0-0.9-1.4-0.5-2h0.1l0,0c0.1-0.3,0.2-0.5,0.3-0.8
					c0.1,0,0.1,0,0.2,0c-0.1,0.5-0.2,1-0.2,1.6c0.2,0.5,0.4,1,0.5,1.5l-0.1,0.1c0,0.1,0,0.1,0,0.2h0.1v-0.2h0.1
					c0.2,0.2,0.4,0.4,0.6,0.6V53C78,53.1,77.3,52.6,77.1,52.3 M77.7,51.6C77.7,51.6,77.7,51.7,77.7,51.6c0.2,0.4,0.4,0.7,0.6,1l0,0
					c-0.4,0-0.7-1-0.8-1.3C77.6,51.4,77.6,51.5,77.7,51.6 M78.4,51.6L78.4,51.6c0-0.1-0.1-0.1-0.1-0.2
					C78.3,51.5,78.3,51.6,78.4,51.6 M71.2,51.7L71.2,51.7H71c-0.1,0-0.2,0-0.3,0c-0.4,0-0.8-0.1-1.2-0.2l0,0l0,0
					c0.3-0.1,0.6-0.2,1-0.2c0.3,0.1,0.6,0.1,0.9,0.2h0.1C71.3,51.6,71.3,51.6,71.2,51.7 M76.2,49L76.2,49
					C76.2,49.1,76.2,49.1,76.2,49 M83.7,53.3c0-0.1,0.1-0.2,0.1-0.3h-0.2c0-0.1,0-0.1,0-0.2c-0.4,0.2-0.8,0.3-1.2,0.5
					c-0.1,0-0.2,0-0.3,0c-0.2,0-0.4,0-0.6,0c-0.4,0-1,0-1.3-0.2c-0.8-0.6-0.8-3-0.1-3.8c0.3-0.3,0.8-0.3,1.1-0.2
					c0.3,0.2,1.2,0.8,1.5,0.5c0.4-0.4,0-1.9-0.3-2.2c-0.2-0.2-0.6-0.2-0.9-0.3c-0.6-0.2-1.2-0.7-2-0.5c-0.1,0-0.3,0-0.4,0
					c-2.3,0-3.4,2.4-2.9,4.4c0-0.6,0.2-1.6,0.2-1.8l0,0c0.1-0.1,0.2-0.2,0.2-0.3c-0.1,0.5-0.2,1-0.3,1.5c0,0.4,0.1,0.9,0.1,1.2l0,0
					l0,0c-0.1,0-0.1,0-0.1-0.1c0,0.1,0.1,0.2,0.1,0.2v0.1l0,0c-0.3,0-1.1-0.6-1.2-0.9c0-0.7,0.1-1.3,0.1-2c-0.2-2-1.4-4.4-3.7-4.4
					c-0.6,0.2-1.1,0.3-1.6,0.6c0,0.9,0.4,2.7,1.6,2.6c0.6-0.1,1.1-0.5,1.8-0.5c1.3,0.1,0.4,2,0,2.5l0,0h-0.1c0-0.5-3.3-1.1-4-1
					c-0.5,0-1,0.2-1.4,0.5c0,0.1-0.1,0.1-0.1,0.2c-0.3,0.6-0.7,3.4-0.5,4.2c0.1,0,1,0.5,1.3,0.6c1.3,0.3,3,0.6,4.2-0.1
					c0.5-0.3,0.9-0.8,1.4-1.2c0.1,0,0.2,0.1,0.3,0.1c0.6,0.4,1.6,1.2,2.4,1.1c0.5-0.1,0.7-0.8,0-0.9c0.1-0.2,0.1-0.5,0.2-0.7
					c0.3,0.2,0.5,0.3,0.8,0.5c0.5,0.2,1,0.4,1.5,0.5c1,0.5,1.6,1.2,2.8,1.3C83.3,55,85.7,54,83.7,53.3"/>
				<path class="st0" d="M61,48.8L61,48.8c-1.1,0.1-1.1-1.3-0.9-1.9c0.3,0.5,0,1.1,0.3,1.6l0,0c0-0.2-0.1-0.4,0-0.7l0,0
					c0,0,0,0.1,0.1,0.1C60.6,48.3,60.7,48.5,61,48.8C60.9,48.7,61,48.7,61,48.8L61,48.8z M63,48.4c-0.3-1.5,1.6-2.7,2.9-2.2
					c0.8,0.3,1,1,2,1.1c0.1-0.1,0.2-0.3,0.2-0.4c0-0.5-0.7-1.6-1.1-1.7c-0.2-0.1-0.3-0.3-0.5-0.4c-1.1-1-1.2-1.3-3-1.3
					c-0.1,0-0.3,0.1-0.4,0.1c-1.9,0-3.2,1.7-3.8,3.4c-0.1,0.4-0.1,1.1,0.3,1.4c0,0-0.1,0.1-0.1,0.2c0.3,0.2,0.6,0.4,0.9,0.5
					c0.8,0.3,4.1,1.5,3.8,2.6c-0.2,0.7-1.8,1.9-2.5,1.7c-0.3-0.1-0.7-0.7-1.1-0.6c-0.3,0.1-0.3,0.7-0.2,0.9c0.2,0.4,0.5,0.8,0.6,1.3
					v0.1l0,0c-0.1,0-0.1-0.1-0.2-0.1l0,0l0,0c0,0.4,0.7,0.7,1,0.8c1.8,0.4,5.6-1.4,4.8-3.6C65.9,50.3,63.3,49.9,63,48.4"/>
			</g>
		</g>
	</g>
</g>
</svg>
