<svg xmlns="http://www.w3.org/2000/svg" viewBox="0 0 12.88 13.05"><defs><style>.cls-1{fill:#6a3b93;}</style></defs><g id="レイヤー_2" data-name="レイヤー 2"><g id="レイヤー_1-2" data-name="レイヤー 1"><path class="cls-1" d="M1.21,7.18a4.44,4.44,0,0,1-.67.69L0,4.89A9.26,9.26,0,0,0,2,0L4.09.15a17.94,17.94,0,0,1-.88,3.37v9.53h-2ZM7.47,0h2V1.88h3.43v8.61h-2V9.81H9.45v3.24h-2V9.81H6.06v.68H4.15V1.88H7.47ZM6.06,3.74V4.93H7.47V3.74Zm0,2.88V7.94H7.47V6.62ZM9.45,3.74V4.93h1.48V3.74Zm0,2.88V7.94h1.48V6.62Z"/></g></g></svg>