<?xml version="1.0" encoding="utf-8"?>
<!-- Generator: Adobe Illustrator 21.1.0, SVG Export Plug-In . SVG Version: 6.00 Build 0)  -->
<svg version="1.1" id="Capa_1" xmlns="http://www.w3.org/2000/svg" xmlns:xlink="http://www.w3.org/1999/xlink" x="0px" y="0px"
	 viewBox="0 0 376.2 359.9" style="enable-background:new 0 0 376.2 359.9;" xml:space="preserve">
<style type="text/css">
	.st0{fill:#FFFFFF;}
</style>
<g>
	<path class="st0" d="M142.6,136.5L186.5,0h3.2l43.9,136.5h142.2l0.4,3.7l-115.4,81.2l45.9,136.1l-2.8,2.4l-115.8-85.3L72.3,359.9
		l-2.8-2.4l45.9-136.1L0,140.2l0.4-3.7H142.6z M153.1,151.1H74.7l-39-2v0.8l34.5,21.9l62.6,43.9l-23.6,69.1L93.4,327l0.8,0.4
		L130,299l58.1-42.2l58.1,42.2l35.7,28.4l0.8-0.4l-15.8-42.2l-23.6-69.1l62.6-43.9l34.5-21.9v-0.8l-39.4,2h-78l-24-74.7l-10.6-38.2
		h-0.8L177,76.4L153.1,151.1z"/>
</g>
</svg>
