<?xml version="1.0" encoding="utf-8"?>
<!-- Generator: Adobe Illustrator 21.1.0, SVG Export Plug-In . SVG Version: 6.00 Build 0)  -->
<svg version="1.1" id="Capa_1" xmlns="http://www.w3.org/2000/svg" xmlns:xlink="http://www.w3.org/1999/xlink" x="0px" y="0px"
	 viewBox="0 0 53.6 53.6" style="enable-background:new 0 0 53.6 53.6;" xml:space="preserve">
<style type="text/css">
	.st0{fill:#FFFFFF;}
</style>
<path class="st0" d="M53.6,49.4L37.8,33.6C40.4,30,42,25.7,42,21C42,9.4,32.6,0,21,0S0,9.4,0,21s9.4,21,21,21c4.7,0,9-1.6,12.6-4.2
	l15.8,15.8L53.6,49.4z M2,21C2,10.5,10.5,2,21,2s19,8.5,19,19s-8.5,19-19,19S2,31.5,2,21z M35.6,36.1c0.2-0.2,0.4-0.3,0.5-0.5
	s0.3-0.3,0.4-0.4l14.3,14.3l-1.4,1.4L35.1,36.5C35.3,36.4,35.4,36.2,35.6,36.1z"/>
</svg>
