<?xml version="1.0" encoding="utf-8"?>
<!-- Generator: Adobe Illustrator 21.1.0, SVG Export Plug-In . SVG Version: 6.00 Build 0)  -->
<svg version="1.1" id="Shape_1_1_" xmlns="http://www.w3.org/2000/svg" xmlns:xlink="http://www.w3.org/1999/xlink" x="0px" y="0px"
	 viewBox="0 0 512 450" style="enable-background:new 0 0 512 450;" xml:space="preserve">
<style type="text/css">
	.st0{fill-rule:evenodd;clip-rule:evenodd;fill:#901717;}
</style>
<g id="Shape_1">
	<g>
		<path class="st0" d="M243.2,109.9v204.7c0,7.1,5.7,12.8,12.8,12.8c7.1,0,12.8-5.7,12.8-12.8V109.9c0-7.1-5.7-12.8-12.8-12.8
			C248.9,97.1,243.2,102.8,243.2,109.9z M508.4,411.6L278.2,12.8C273.6,4.9,265.1,0,256,0c-9.1,0-17.6,4.9-22.2,12.8L3.6,411.6
			c-4.6,7.9-4.6,17.7,0,25.6c4.6,7.9,13,12.8,22.2,12.8h460.5c9.1,0,17.6-4.9,22.2-12.8C513,429.3,513,419.5,508.4,411.6z
			 M25.7,424.4L256,25.6l230.3,398.8H25.7z M256,361.2c-9.5,0-17.3,7.7-17.3,17.3c0,9.5,7.7,17.3,17.3,17.3
			c9.5,0,17.3-7.7,17.3-17.3C273.3,369,265.5,361.2,256,361.2z"/>
	</g>
</g>
</svg>
